<svg width="88" height="79" viewBox="0 0 88 79" fill="none" xmlns="http://www.w3.org/2000/svg">
<path d="M27.5 9.875H18.3333C14.2817 9.875 11 12.821 11 16.4583V24.6875" stroke="white" stroke-width="1.5" stroke-linecap="round" stroke-linejoin="round"/>
<path d="M11 54.3125V62.5417C11 66.179 14.2817 69.125 18.3333 69.125H27.5" stroke="white" stroke-width="1.5" stroke-linecap="round" stroke-linejoin="round"/>
<path d="M60.5 69.125H69.6667C73.7183 69.125 77 66.179 77 62.5417V54.3125" stroke="white" stroke-width="1.5" stroke-linecap="round" stroke-linejoin="round"/>
<path d="M77 24.6875V16.4583C77 12.821 73.7183 9.875 69.6667 9.875H60.5" stroke="white" stroke-width="1.5" stroke-linecap="round" stroke-linejoin="round"/>
<path d="M48.9023 37.2551C51.5328 39.6165 51.5328 43.4451 48.9023 45.8065C46.2719 48.168 42.0071 48.168 39.3766 45.8065C36.7462 43.4451 36.7462 39.6165 39.3766 37.2551C42.0071 34.8937 46.2719 34.8937 48.9023 37.2551" stroke="white" stroke-width="1.5" stroke-linecap="round" stroke-linejoin="round"/>
<path fill-rule="evenodd" clip-rule="evenodd" d="M64.625 33.3281V51.8438C64.625 54.115 62.5717 55.9583 60.0417 55.9583H27.9583C25.4283 55.9583 23.375 54.115 23.375 51.8438V33.3281C23.375 31.0569 25.4283 29.2135 27.9583 29.2135H32.5417L35.893 24.0621C36.3037 23.4301 37.0553 23.0417 37.873 23.0417H50.028C50.831 23.0417 51.5753 23.4202 51.9933 24.039L55.462 29.2135H60.0453C62.5717 29.2135 64.625 31.0569 64.625 33.3281V33.3281Z" stroke="white" stroke-width="1.5" stroke-linecap="round" stroke-linejoin="round"/>
</svg>
