<svg width="20" height="20" viewBox="0 0 20 20" fill="none" xmlns="http://www.w3.org/2000/svg">
<path d="M14.9993 10.8317H10.8327V14.9984C10.8327 15.2194 10.7449 15.4313 10.5886 15.5876C10.4323 15.7439 10.2204 15.8317 9.99935 15.8317C9.77834 15.8317 9.56637 15.7439 9.41009 15.5876C9.25381 15.4313 9.16602 15.2194 9.16602 14.9984V10.8317H4.99935C4.77834 10.8317 4.56637 10.7439 4.41009 10.5876C4.25381 10.4313 4.16602 10.2194 4.16602 9.99837C4.16602 9.77736 4.25381 9.5654 4.41009 9.40912C4.56637 9.25284 4.77834 9.16504 4.99935 9.16504H9.16602V4.99837C9.16602 4.77736 9.25381 4.5654 9.41009 4.40912C9.56637 4.25284 9.77834 4.16504 9.99935 4.16504C10.2204 4.16504 10.4323 4.25284 10.5886 4.40912C10.7449 4.5654 10.8327 4.77736 10.8327 4.99837V9.16504H14.9993C15.2204 9.16504 15.4323 9.25284 15.5886 9.40912C15.7449 9.5654 15.8327 9.77736 15.8327 9.99837C15.8327 10.2194 15.7449 10.4313 15.5886 10.5876C15.4323 10.7439 15.2204 10.8317 14.9993 10.8317Z" fill="white"/>
</svg>
