<svg width="24" height="24" viewBox="0 0 24 24" fill="none" xmlns="http://www.w3.org/2000/svg">
<path d="M11.9972 17.5023C11.7221 17.5023 11.497 17.7274 11.5 18.0025C11.5 18.2776 11.7251 18.5027 12.0002 18.5027C12.2754 18.5027 12.5004 18.2776 12.5004 18.0025C12.5004 17.7274 12.2754 17.5023 11.9972 17.5023" stroke="#323232" stroke-width="1.5" stroke-linecap="round" stroke-linejoin="round"/>
<path d="M11.9972 11.4998C11.7221 11.4998 11.497 11.7248 11.5 12C11.5 12.2751 11.7251 12.5002 12.0002 12.5002C12.2754 12.5002 12.5004 12.2751 12.5004 12C12.5004 11.7248 12.2754 11.4998 11.9972 11.4998" stroke="#323232" stroke-width="1.5" stroke-linecap="round" stroke-linejoin="round"/>
<path d="M11.9972 5.49731C11.7221 5.49731 11.497 5.72241 11.5 5.99752C11.5 6.27264 11.7251 6.49773 12.0002 6.49773C12.2754 6.49773 12.5004 6.27264 12.5004 5.99752C12.5004 5.72241 12.2754 5.49731 11.9972 5.49731" stroke="#323232" stroke-width="1.5" stroke-linecap="round" stroke-linejoin="round"/>
</svg>
