<svg width="24" height="24" viewBox="0 0 24 24" fill="none" xmlns="http://www.w3.org/2000/svg">
<path d="M14.0616 18.4422C14.6475 19.0281 14.6475 19.9781 14.0616 20.5641C13.4756 21.15 12.5256 21.15 11.9397 20.5641C11.3538 19.9781 11.3538 19.0281 11.9397 18.4422C12.221 18.1607 12.6027 18.0025 13.0006 18.0025C13.3986 18.0025 13.7803 18.1607 14.0616 18.4422" stroke="white" stroke-width="1.5" stroke-linecap="round" stroke-linejoin="round"/>
<path d="M19.5638 17.4418C20.1497 18.0277 20.1497 18.9777 19.5638 19.5636C18.9778 20.1496 18.0278 20.1496 17.4419 19.5636C16.856 18.9777 16.856 18.0277 17.4419 17.4418C17.7232 17.1603 18.1049 17.0021 18.5028 17.0021C18.9008 17.0021 19.2825 17.1603 19.5638 17.4418" stroke="white" stroke-width="1.5" stroke-linecap="round" stroke-linejoin="round"/>
<path d="M3.99686 18.0025V18.0025C3.99245 16.9398 4.41262 15.9194 5.16405 15.168C5.91547 14.4166 6.9359 13.9964 7.99856 14.0008H11.111" stroke="white" stroke-width="1.5" stroke-linecap="round" stroke-linejoin="round"/>
<circle cx="10.9997" cy="6.99793" r="4.00167" stroke="white" stroke-width="1.5" stroke-linecap="round" stroke-linejoin="round"/>
<path d="M14.5007 19.3724V14.9018C14.5005 14.4927 14.7499 14.1248 15.13 13.9734L18.6315 12.5729C18.9395 12.4495 19.2888 12.487 19.5636 12.6731C19.8384 12.8591 20.003 13.1694 20.003 13.5012V18.3528" stroke="white" stroke-width="1.5" stroke-linecap="round" stroke-linejoin="round"/>
</svg>
