<svg width="20" height="20" viewBox="0 0 20 20" fill="none" xmlns="http://www.w3.org/2000/svg">
<path d="M15.0001 10.8317H10.8334V14.9983C10.8334 15.2193 10.7456 15.4313 10.5893 15.5876C10.4331 15.7439 10.2211 15.8317 10.0001 15.8317C9.77907 15.8317 9.56711 15.7439 9.41083 15.5876C9.25455 15.4313 9.16675 15.2193 9.16675 14.9983V10.8317H5.00008C4.77907 10.8317 4.56711 10.7439 4.41083 10.5876C4.25455 10.4313 4.16675 10.2193 4.16675 9.99833C4.16675 9.77732 4.25455 9.56536 4.41083 9.40908C4.56711 9.2528 4.77907 9.165 5.00008 9.165H9.16675V4.99833C9.16675 4.77732 9.25455 4.56536 9.41083 4.40908C9.56711 4.2528 9.77907 4.165 10.0001 4.165C10.2211 4.165 10.4331 4.2528 10.5893 4.40908C10.7456 4.56536 10.8334 4.77732 10.8334 4.99833V9.165H15.0001C15.2211 9.165 15.4331 9.2528 15.5893 9.40908C15.7456 9.56536 15.8334 9.77732 15.8334 9.99833C15.8334 10.2193 15.7456 10.4313 15.5893 10.5876C15.4331 10.7439 15.2211 10.8317 15.0001 10.8317Z" fill="white"/>
</svg>
