<svg width="24" height="24" viewBox="0 0 24 24" fill="none" xmlns="http://www.w3.org/2000/svg">
<path fill-rule="evenodd" clip-rule="evenodd" d="M18.9569 21.0037H5.04307C3.93761 21.0037 3.04224 20.1084 3.04224 19.0029V10.9996C3.04224 9.89412 3.93761 8.99875 5.04307 8.99875H18.9569C20.0623 8.99875 20.9577 9.89412 20.9577 10.9996V19.0029C20.9577 20.1084 20.0613 21.0037 18.9569 21.0037Z" stroke="#818385" stroke-width="1.5" stroke-linecap="round" stroke-linejoin="round"/>
<path d="M11.9889 15.4404C12.5752 16.0267 12.5752 16.9771 11.9889 17.5623C11.4027 18.1476 10.4523 18.1486 9.86705 17.5623C9.28081 16.9761 9.28081 16.0257 9.86705 15.4404C10.4533 14.8552 11.4027 14.8552 11.9889 15.4404" stroke="#818385" stroke-width="1.5" stroke-linecap="round" stroke-linejoin="round"/>
<path d="M14.382 12.7943L12.4292 12.1431V16.5019" stroke="#818385" stroke-width="1.5" stroke-linecap="round" stroke-linejoin="round"/>
<path d="M4.77893 8.99875V7.99833C4.77893 6.89287 5.6743 5.9975 6.77976 5.9975H17.2191C18.3246 5.9975 19.2199 6.89287 19.2199 7.99833V8.99875" stroke="#818385" stroke-width="1.5" stroke-linecap="round" stroke-linejoin="round"/>
<path d="M6.51367 5.9975V4.99708C6.51367 3.89162 7.40904 2.99625 8.51451 2.99625H15.4864C16.5919 2.99625 17.4872 3.89162 17.4872 4.99708V5.9975" stroke="#818385" stroke-width="1.5" stroke-linecap="round" stroke-linejoin="round"/>
</svg>
