<svg width="24" height="24" viewBox="0 0 24 24" fill="none" xmlns="http://www.w3.org/2000/svg">
<path d="M15.0618 18.4422C15.6478 19.0281 15.6478 19.9781 15.0618 20.5641C14.4759 21.15 13.5259 21.15 12.9399 20.5641C12.354 19.9781 12.354 19.0281 12.9399 18.4422C13.2212 18.1607 13.6029 18.0025 14.0009 18.0025C14.3989 18.0025 14.7805 18.1607 15.0618 18.4422" stroke="#818385" stroke-width="1.5" stroke-linecap="round" stroke-linejoin="round"/>
<path d="M20.564 17.4418C21.15 18.0277 21.15 18.9777 20.564 19.5636C19.9781 20.1496 19.0281 20.1496 18.4421 19.5636C17.8562 18.9777 17.8562 18.0277 18.4421 17.4418C18.7234 17.1602 19.1051 17.0021 19.5031 17.0021C19.9011 17.0021 20.2827 17.1602 20.564 17.4418" stroke="#818385" stroke-width="1.5" stroke-linecap="round" stroke-linejoin="round"/>
<path d="M15.501 19.3724V14.9018C15.5007 14.4927 15.7501 14.1248 16.1302 13.9734L19.6317 12.5728C19.9398 12.4495 20.289 12.487 20.5639 12.6731C20.8387 12.8591 21.0033 13.1693 21.0033 13.5012V18.3528" stroke="#818385" stroke-width="1.5" stroke-linecap="round" stroke-linejoin="round"/>
<path d="M20.0033 3.99667H4.10669" stroke="#818385" stroke-width="1.5" stroke-linecap="round" stroke-linejoin="round"/>
<path d="M20.0034 7.99832H3.9967" stroke="#818385" stroke-width="1.5" stroke-linecap="round" stroke-linejoin="round"/>
<path d="M12 12H4.10669" stroke="#818385" stroke-width="1.5" stroke-linecap="round" stroke-linejoin="round"/>
<path d="M8.99869 12H4.03101" stroke="#818385" stroke-width="1.5" stroke-linecap="round" stroke-linejoin="round"/>
<path d="M8.99879 16.0017H3.9967" stroke="#818385" stroke-width="1.5" stroke-linecap="round" stroke-linejoin="round"/>
</svg>
