<svg width="16" height="16" viewBox="0 0 16 16" fill="none" xmlns="http://www.w3.org/2000/svg">
<path d="M7.99941 12.6667C7.43808 12.6667 6.87608 12.548 6.33008 12.3367" stroke="#C5B0C9" stroke-linecap="round" stroke-linejoin="round"/>
<path d="M13.9213 8.31201C12.66 10.6447 10.33 12.6667 8 12.6667" stroke="#C5B0C9" stroke-linecap="round" stroke-linejoin="round"/>
<path d="M12.7188 5.94739C13.1794 6.48672 13.5888 7.07472 13.9208 7.68872C14.0254 7.88272 14.0254 8.11805 13.9208 8.31205" stroke="#C5B0C9" stroke-linecap="round" stroke-linejoin="round"/>
<path d="M3.33398 12.6667L12.6673 3.33337" stroke="#C5B0C9" stroke-linecap="round" stroke-linejoin="round"/>
<path d="M6.51539 9.48466C5.69539 8.66466 5.69539 7.33466 6.51539 6.51466C7.33539 5.69466 8.66539 5.69466 9.48539 6.51466" stroke="#C5B0C9" stroke-linecap="round" stroke-linejoin="round"/>
<path d="M11.3625 4.63737C10.3312 3.83937 9.16517 3.33337 7.99983 3.33337C5.66983 3.33337 3.33983 5.35537 2.0785 7.68871C1.97383 7.88271 1.97383 8.11804 2.0785 8.31204C2.70917 9.47804 3.6065 10.566 4.63717 11.3634" stroke="#C5B0C9" stroke-linecap="round" stroke-linejoin="round"/>
</svg>
